# xmcd
# 
# Track frame offsets:
#     150
#     16733
#     33464
#     46527
#     57894
#     78647
#     89200
#     101223
#     119680
#     133207
#     153750
#     170316
#     193295
# 
# Disc length: 2841
# 
# Revision: 2
# Processed by: cddbd v1.5.2PL0 Copyright (c) Steve Scherf et al.
# Submitted via: fre:ac v1.0.31
# 
DISCID=af0b170d
DTITLE=Magic Slim and The Teardrops - Midnight Blues
DYEAR=2008
DGENRE=Blues
TTITLE0=Let Me Love You
TTITLE1=You Can't Lose What You Ain't Never Had
TTITLE2=Give Me Back My Wig
TTITLE3=Lonely Man
TTITLE4=Spider In My Stew
TTITLE5=Going Down The Road Feeling Bad
TTITLE6=Full Load Boogie
TTITLE7=Crosseyed Cat
TTITLE8=House Cat Blues
TTITLE9=Carla
TTITLE10=Cryin' Won't Let You Stay
TTITLE11=What Is It That You Got
TTITLE12=Loving You Is The Best Thing That Ever Happened To Me
EXTD=
EXTT0=
EXTT1=
EXTT2=
EXTT3=
EXTT4=
EXTT5=
EXTT6=
EXTT7=
EXTT8=
EXTT9=
EXTT10=
EXTT11=
EXTT12=
PLAYORDER=
